
<svg width="320px" height="31px" viewBox="0 0 320 31" version="1.1" xmlns="http://www.w3.org/2000/svg" xmlns:xlink="http://www.w3.org/1999/xlink">
    <defs>
        <polygon id="path-1" points="0 36 320.11404 36 320.11404 0.751 0 0.751"></polygon>
    </defs>
    <g id="Symbols" stroke="none" stroke-width="1" fill="none" fill-rule="evenodd">
        <g id="Nav-Transparent" transform="translate(0.000000, -69.000000)">
            <g id="MOS---Rev-logo">
                <g transform="translate(0.000000, 68.000000)">
                    <g id="Group-33">
                        <polygon id="Fill-1" fill="#FFFFFF" points="58.3579975 8.379 58.3579975 30.62 54.344016 30.62 54.7173637 12.348 49.9873052 30.62 46.2854345 30.62 41.5247575 12.348 41.9287237 30.62 37.9147422 30.62 37.9147422 8.379 43.8892929 8.379 48.1827914 24.886 52.3834468 8.379"></polygon>
                        <g id="Group-27" transform="translate(0.000000, 0.249100)">
                            <path d="M76.9018218,14.6192 L76.9018218,30.3702 L73.1683449,30.3702 L73.1683449,28.7642 C72.5144926,29.3942 70.9894957,30.7482 68.1271634,30.7482 C65.5759542,30.7482 64.3620803,29.6462 63.8020588,28.9212 C62.7442403,27.5672 62.7442403,26.0862 62.7442403,23.7232 L62.7442403,14.6192 L66.5093234,14.6192 L66.5093234,23.6602 C66.5093234,24.2902 66.5093234,24.8262 66.6337726,25.2352 C67.0387265,26.6212 68.1587695,27.2212 69.5267234,27.2212 C71.0833265,27.2212 72.0483018,26.3702 72.5451111,25.5502 C73.1051326,24.5122 73.1367388,23.5022 73.1683449,21.2972 L73.1683449,14.6192 L76.9018218,14.6192 Z" id="Fill-2" fill="#FFFFFF"></path>
                            <path d="M82.4093917,25.708 C83.3427609,26.874 84.7423209,27.724 86.889564,27.724 C89.0368071,27.724 89.9701763,26.654 89.9701763,25.865 C89.9701763,24.858 88.8491455,24.606 88.3523363,24.511 C87.8229332,24.385 85.271724,23.913 84.7117025,23.755 C81.008844,22.873 80.3243732,20.699 80.3243732,19.281 C80.3243732,16.604 82.7205148,14.147 86.9833948,14.147 C89.3479302,14.147 91.0596009,14.903 92.1164317,15.659 C92.8947332,16.163 93.3925302,16.698 93.7036532,17.076 L91.0596009,19.565 C90.6230409,18.715 89.5652225,17.171 86.8273394,17.171 C85.053444,17.171 84.244524,17.958 84.244524,18.778 C84.244524,19.912 85.3961732,20.226 87.3873609,20.574 C90.6230409,21.172 91.5257917,21.33 92.5213855,22.117 C93.4863609,22.873 94.1086071,24.133 94.1086071,25.456 C94.1086071,27.914 91.9307455,30.843 87.1068563,30.843 C84.3383548,30.843 81.6004717,29.961 79.6399025,28.039 L82.4093917,25.708 Z" id="Fill-4" fill="#FFFFFF"></path>
                            <path d="M107.581026,20.4785 C107.238297,18.0215 105.744906,17.1705 104.09546,17.1705 C102.104273,17.1705 100.735331,18.3365 100.299759,20.4785 L107.581026,20.4785 Z M111.8123,26.8425 C109.883337,29.4575 107.393365,30.8425 104.21991,30.8425 C100.143703,30.8425 96.2235526,28.2285 96.2235526,22.4315 C96.2235526,17.1395 99.5836818,14.1465 103.971011,14.1465 C108.078823,14.1465 109.790494,16.6345 110.10063,17.1075 C111.376728,18.9345 111.656245,21.6755 111.687851,23.2505 L100.17531,23.2505 C100.610882,25.7405 102.134891,27.1585 104.593257,27.1585 C107.145454,27.1585 108.171666,25.6455 108.638845,24.9835 L111.8123,26.8425 Z" id="Fill-6" fill="#FFFFFF"></path>
                            <path d="M128.738778,14.6192 L128.738778,30.3702 L125.005302,30.3702 L125.005302,28.7642 C124.351449,29.3942 122.82744,30.7482 119.96412,30.7482 C117.412911,30.7482 116.199037,29.6462 115.639015,28.9212 C114.581197,27.5672 114.581197,26.0862 114.581197,23.7232 L114.581197,14.6192 L118.34628,14.6192 L118.34628,23.6602 C118.34628,24.2902 118.34628,24.8262 118.470729,25.2352 C118.875683,26.6212 119.995726,27.2212 121.36368,27.2212 C122.920283,27.2212 123.885258,26.3702 124.382068,25.5502 C124.942089,24.5122 124.973695,23.5022 125.005302,21.2972 L125.005302,14.6192 L128.738778,14.6192 Z" id="Fill-8" fill="#FFFFFF"></path>
                            <path d="M132.783082,14.6192 L136.485941,14.6192 L136.485941,16.3832 C137.730433,14.8082 139.939901,14.1462 141.401685,14.1462 C142.864458,14.1462 144.69959,14.7132 145.72679,16.5722 C146.349036,15.6902 147.966876,14.1462 150.705747,14.1462 C152.260374,14.1462 153.753765,14.5872 154.812571,15.7532 C156.057064,17.1402 156.026445,18.8092 156.026445,20.4472 L156.026513,30.3702 L152.322599,30.3702 L152.322599,21.6772 C152.322599,20.1952 152.540879,17.7062 149.709165,17.7062 C148.526898,17.7062 147.56291,18.3682 147.065113,19.1872 C146.349036,20.3522 146.256193,21.6122 146.256193,22.9682 L146.256193,30.3702 L142.552347,30.3702 L142.552347,21.5812 C142.552347,20.4472 142.552347,20.0372 142.428885,19.5652 C142.149368,18.5252 141.339461,17.7062 140.032744,17.7062 C138.912701,17.7062 137.823276,18.3682 137.170411,19.5332 C136.516559,20.7632 136.485941,22.2432 136.485941,23.7872 L136.485941,30.3702 L132.783082,30.3702 L132.783082,14.6192 Z" id="Fill-10" fill="#FFFFFF"></path>
                            <path d="M175.441513,17.5489 C173.107596,17.5489 171.427531,19.4389 171.427531,22.3379 C171.427531,25.5819 173.387113,27.3779 175.628187,27.3779 C178.335451,27.3779 179.704393,24.9839 179.610562,22.3689 C179.548338,19.7539 178.054947,17.5489 175.441513,17.5489 M175.628187,30.8429 C170.774667,30.8429 167.537999,27.2509 167.537999,22.4319 C167.537999,17.6109 170.836891,14.1469 175.472131,14.1469 C179.798224,14.1469 183.500094,17.2029 183.531701,22.4319 C183.531701,27.3459 180.326639,30.8429 175.628187,30.8429" id="Fill-12" fill="#FFFFFF"></path>
                            <path d="M190.780177,17.2969 L190.780177,30.3709 L187.047688,30.3709 L187.047688,17.2969 L184.713771,17.2969 L184.713771,14.5879 L187.047688,14.5879 L187.047688,12.7919 C187.016082,10.5559 187.016082,8.0979 192.056275,8.0979 C192.803958,8.0979 193.487442,8.1609 194.1729,8.2239 L194.1729,11.4379 C193.861777,11.3749 193.519048,11.3429 192.990632,11.3429 C191.994051,11.3429 191.403411,11.5639 191.030063,12.1309 C190.905614,12.3509 190.780177,12.8229 190.780177,13.2959 L190.780177,14.5879 L194.1729,14.5879 L194.1729,17.2969 L190.780177,17.2969 Z" id="Fill-14" fill="#FFFFFF"></path>
                            <path d="M206.929045,23.7549 C207.45746,24.5739 209.106906,27.1259 213.743134,27.1259 C214.520448,27.1259 215.330356,27.0629 216.10767,26.7469 C217.694891,26.0859 217.974408,24.9519 217.974408,24.1949 C217.974408,22.7779 217.009433,22.2749 216.324962,21.9909 C215.827165,21.8029 215.76494,21.7709 213.773753,21.2969 L211.1297,20.7319 C209.728165,20.3849 209.044682,20.2269 208.359223,19.9419 C207.364617,19.5339 204.657353,18.1799 204.657353,14.4929 C204.657353,10.2719 208.173537,7.5629 213.33818,7.5629 C218.067251,7.5629 220.619448,9.9249 222.175063,12.0669 L218.814934,14.6189 C218.067251,13.5169 216.636085,11.3119 213.1199,11.3119 C210.91142,11.3119 208.982457,12.3189 208.982457,14.0209 C208.982457,15.9109 211.03587,16.2889 213.027057,16.6669 L215.29875,17.1699 C218.253925,17.8019 222.423962,19.0289 222.423962,23.7869 C222.423962,28.8899 217.757116,30.9379 213.089282,30.9379 C211.875408,30.9379 210.506466,30.8119 209.169131,30.4339 C207.706359,29.9919 205.123543,28.9209 203.475085,26.2119 L206.929045,23.7549 Z" id="Fill-16" fill="#FFFFFF"></path>
                            <path d="M235.49202,20.1953 C235.211515,19.1553 234.123078,17.5173 231.976823,17.5173 C229.82958,17.5173 228.117909,19.2503 228.117909,22.4003 C228.117909,25.2353 229.580682,27.3153 232.03806,27.3153 C234.403583,27.3153 235.305346,25.4873 235.772525,24.2283 L238.976598,25.9283 C237.762725,29.3303 234.6831,30.8423 231.976823,30.8423 C227.650731,30.8423 224.259983,27.4723 224.259983,22.4943 C224.259983,17.6743 227.682337,14.1473 232.101272,14.1473 C236.021423,14.1473 238.012611,16.7933 238.821531,18.6203 L235.49202,20.1953 Z" id="Fill-18" fill="#FFFFFF"></path>
                            <mask id="mask-2" fill="white">
                                <use xlink:href="#path-1"></use>
                            </mask>
                            <g id="Clip-21"></g>
                            <path d="M241.092729,30.37 L244.795588,30.37 L244.795588,14.619 L241.092729,14.619 L241.092729,30.37 Z M241.092729,12.162 L244.795588,12.162 L244.795588,8.349 L241.092729,8.349 L241.092729,12.162 Z" id="Fill-20" fill="#FFFFFF" mask="url(#mask-2)"></path>
                            <path d="M259.2637,20.4785 C258.921958,18.0215 257.428567,17.1705 255.779121,17.1705 C253.787934,17.1705 252.418992,18.3365 251.98342,20.4785 L259.2637,20.4785 Z M263.494974,26.8425 C261.56601,29.4575 259.077026,30.8425 255.90357,30.8425 C251.827364,30.8425 247.907214,28.2285 247.907214,22.4315 C247.907214,17.1395 251.267343,14.1465 255.654672,14.1465 C259.762484,14.1465 261.473167,16.6345 261.78429,17.1075 C263.059401,18.9345 263.339906,21.6755 263.371512,23.2505 L251.85897,23.2505 C252.294543,25.7405 253.818552,27.1585 256.276918,27.1585 C258.828127,27.1585 259.855327,25.6455 260.321518,24.9835 L263.494974,26.8425 Z" id="Fill-22" fill="#FFFFFF" mask="url(#mask-2)"></path>
                            <path d="M266.295674,14.6192 L270.060757,14.6192 L270.060757,16.4772 C270.247431,16.1942 270.619791,15.6902 271.273643,15.2492 C272.207012,14.5572 273.638178,14.1462 274.85304,14.1462 C276.62496,14.1462 278.150945,14.9652 278.928258,16.0372 C279.892246,17.3602 279.892246,19.0612 279.892246,21.1082 L279.892246,30.3702 L276.190375,30.3702 L276.190375,22.3372 C276.190375,21.1712 276.190375,20.3842 276.065926,19.9422 C275.723197,18.5572 274.727603,17.8322 273.514717,17.8322 C272.300843,17.8322 271.1808,18.5572 270.652385,19.5972 C270.060757,20.7632 270.060757,22.3682 270.060757,23.5342 L270.060757,30.3702 L266.295674,30.3702 L266.295674,14.6192 Z" id="Fill-23" fill="#FFFFFF" mask="url(#mask-2)"></path>
                            <path d="M293.801127,20.1953 C293.520622,19.1553 292.432185,17.5173 290.284942,17.5173 C288.138687,17.5173 286.427016,19.2503 286.427016,22.4003 C286.427016,25.2353 287.889788,27.3153 290.347167,27.3153 C292.711702,27.3153 293.614453,25.4873 294.080644,24.2283 L297.286693,25.9283 C296.071831,29.3303 292.992207,30.8423 290.284942,30.8423 C285.959838,30.8423 282.56909,27.4723 282.56909,22.4943 C282.56909,17.6743 285.991444,14.1473 290.409391,14.1473 C294.33053,14.1473 296.321718,16.7933 297.12965,18.6203 L293.801127,20.1953 Z" id="Fill-24" fill="#FFFFFF" mask="url(#mask-2)"></path>
                            <path d="M309.794137,20.4785 C309.451408,18.0215 307.958017,17.1705 306.308571,17.1705 C304.318371,17.1705 302.948442,18.3365 302.512869,20.4785 L309.794137,20.4785 Z M314.025411,26.8425 C312.096448,29.4575 309.607463,30.8425 306.43302,30.8425 C302.356814,30.8425 298.437651,28.2285 298.437651,22.4315 C298.437651,17.1395 301.796792,14.1465 306.184122,14.1465 C310.291934,14.1465 312.003605,16.6345 312.314728,17.1075 C313.589838,18.9345 313.870343,21.6755 313.901949,23.2505 L302.38842,23.2505 C302.823992,25.7405 304.348989,27.1585 306.807355,27.1585 C309.358565,27.1585 310.384777,25.6455 310.851955,24.9835 L314.025411,26.8425 Z" id="Fill-25" fill="#FFFFFF" mask="url(#mask-2)"></path>
                            <path d="M9.95159262,15.079 C9.95159262,16.128 10.2567895,17.103 10.7852049,17.916 C3.18886338,24.302 2.45797108,30.006 2.41154954,30.47 L7.49026338,30.47 C7.03987569,25.542 9.23255262,22.037 12.1541465,19.352 C12.9887465,19.938 13.9991557,20.286 15.0905557,20.286 C17.9311588,20.286 20.2324818,17.955 20.2324818,15.079 C20.2324818,14.665 20.1791465,14.261 20.0853157,13.874 C25.027728,10.911 29.1770234,10.359 29.3557957,10.338 L29.3557957,7.562 C25.1077311,8.976 21.6873526,10.65 19.2526911,12.036 C18.3193218,10.728 16.8042018,9.875 15.0905557,9.875 C12.251928,9.875 9.95159262,12.205 9.95159262,15.079 Z" id="Fill-26" fill="#FFFFFF" mask="url(#mask-2)"></path>
                        </g>
                        <g id="Group-32" transform="translate(0.000000, 0.249100)" fill="#EE3124">
                            <path d="M20.2324818,15.0791 C20.2324818,17.9551 17.9311588,20.2861 15.0905557,20.2861 C13.9991557,20.2861 12.9887465,19.9381 12.1541465,19.3511 C9.23255262,22.0371 7.03987569,25.5421 7.49026338,30.4711 L29.3557957,30.4711 L29.3557957,10.3381 C29.1770234,10.3591 25.027728,10.9111 20.0853157,13.8731 C20.1791465,14.2621 20.2324818,14.6651 20.2324818,15.0791" id="Fill-28"></path>
                            <path d="M0.000691384615,0.751 L0.000691384615,30.471 L2.41164831,30.471 C2.45806985,30.006 3.18896215,24.303 10.7853037,17.917 C10.2568883,17.102 9.95169138,16.128 9.95169138,15.079 C9.95169138,12.205 12.2520268,9.875 15.0906545,9.875 C16.8043006,9.875 18.3194206,10.728 19.2527898,12.036 C21.6874514,10.649 25.1078298,8.975 29.3558945,7.563 L29.3558945,0.751 L0.000691384615,0.751 Z" id="Fill-30"></path>
                        </g>
                        <text id="®" font-family="HelveticaNeue-Bold, Helvetica Neue" font-size="6.1928" font-weight="bold" fill="#FFFFFF">
                            <tspan x="314.610421" y="30.8838741">®</tspan>
                        </text>
                    </g>
                </g>
            </g>
        </g>
    </g>
</svg>